<mxfile host="app.diagrams.net" modified="2023-12-18T06:58:11.879Z" agent="Mozilla/5.0 (Windows NT 10.0; Win64; x64) AppleWebKit/537.36 (KHTML, like Gecko) Chrome/120.0.0.0 Safari/537.36" version="22.1.11" etag="o0SCMlZWS2cv4RoazkxS" type="github">
  <diagram name="Page-1" id="MTLU39TP6CwQprHbCvHi">
    <mxGraphModel>
      <root>
        <mxCell id="0" />
        <mxCell id="1" parent="0" />
      </root>
    </mxGraphModel>
  </diagram>
</mxfile>
